<svg xmlns="http://www.w3.org/2000/svg" viewBox="0 0 101.2 101.14"><defs><style>.cls-1{fill:#fff;}</style></defs><title>Asset 7</title><g id="Layer_2" data-name="Layer 2"><g id="Layer_1-2" data-name="Layer 1"><path class="cls-1" d="M52.14,24.39a6.24,6.24,0,1,0,0,12.47,6.24,6.24,0,0,0,0-12.47Z"/><path class="cls-1" d="M59,36.86a9.15,9.15,0,0,1-6.81,3.07,9.36,9.36,0,0,1-6.91-3.07A9.12,9.12,0,0,0,42.83,43v1.53a1.54,1.54,0,0,0,1.54,1.54H59.81a1.53,1.53,0,0,0,1.53-1.54V43A9.16,9.16,0,0,0,59,36.86Z"/><path class="cls-1" d="M39.24,71.48,31.43,55.8a3.08,3.08,0,0,0-4.11-1.38l-2.05,1a1.54,1.54,0,0,0-.69,2.06L33.79,75.9a1.53,1.53,0,0,0,2.05.69l2-1A3.05,3.05,0,0,0,39.24,71.48Z"/><path class="cls-1" d="M75.53,49.72a3.05,3.05,0,0,0-4,.4L63.09,60.43a3.7,3.7,0,0,1-2.27,1H53.67a1.54,1.54,0,0,1,0-3.07h6.14a3.07,3.07,0,1,0,0-6.13h-8c-.76,0-1.15-.49-1.75-1a10.7,10.7,0,0,0-9.52-2.33,11.13,11.13,0,0,0-4.71,2.35l0,0-2.22,2,8.72,17.49H59.81a9.21,9.21,0,0,0,7.36-3.69l9-12.88A3.09,3.09,0,0,0,75.53,49.72Z"/><path class="cls-1" d="M50.61,0A50.64,50.64,0,0,1,98,68.42,50.51,50.51,0,0,1,60.81,100.1a52.92,52.92,0,0,1-10.2,1,51.24,51.24,0,0,1-20-4.09,50.58,50.58,0,0,1,20-97Zm0,0A47,47,0,0,0,6.51,30.53,47.13,47.13,0,1,0,69.24,3.82,47.62,47.62,0,0,0,50.61,0Z"/></g></g></svg>