<svg xmlns="http://www.w3.org/2000/svg" viewBox="0 0 101.2 101.14"><defs><style>.cls-1{fill:#fff;}</style></defs><title>Asset 6</title><g id="Layer_2" data-name="Layer 2"><g id="Layer_1-2" data-name="Layer 1"><path class="cls-1" d="M50.61,0A50.64,50.64,0,0,1,98,68.42,50.51,50.51,0,0,1,60.81,100.1a52.92,52.92,0,0,1-10.2,1,51.24,51.24,0,0,1-20-4.09,50.58,50.58,0,0,1,20-97Zm0,0A47,47,0,0,0,6.51,30.53,47.13,47.13,0,1,0,69.24,3.82,47.62,47.62,0,0,0,50.61,0Z"/><path class="cls-1" d="M50.32,23.92A19.24,19.24,0,0,0,31.1,43.13C31.1,56.28,48.3,75.58,49,76.4a1.73,1.73,0,0,0,2.57,0c.74-.82,17.93-20.12,17.93-33.27A19.23,19.23,0,0,0,50.32,23.92Zm0,28.88A9.67,9.67,0,1,1,60,43.13,9.68,9.68,0,0,1,50.32,52.8Z"/></g></g></svg>