<svg xmlns="http://www.w3.org/2000/svg" viewBox="0 0 141.56 56.59"><defs><style>.cls-1{fill:#231f20;}.cls-2{fill:#164170;}</style></defs><title>Asset 5</title><g id="Layer_2" data-name="Layer 2"><g id="Layer_1-2" data-name="Layer 1"><path class="cls-1" d="M6.31,38.52c.12,0,.15.07.15.15v.42a.16.16,0,0,1-.18.17H4c-.57,0-2.06.05-2.06,1.46v10.8a.17.17,0,0,1-.17.18H1.19A.17.17,0,0,1,1,51.52V40.62C1,38.4,3.39,38.4,4,38.4A23,23,0,0,1,6.31,38.52Z"/><path class="cls-1" d="M23.34,44.5v.74c0,.23,0,.33-.37.33h-8.6c.05,4.25.74,5.39,4.08,5.39H22c.1,0,.15,0,.15.14v.45c0,.07,0,.12-.12.15-.94.12-2.94.12-3.61.12-4.23,0-5-1.38-5-6.75s.81-6.67,5-6.67C22.35,38.4,23.29,39.61,23.34,44.5Zm-9,.18h8c0-4.5-.79-5.42-3.95-5.42C15.09,39.26,14.39,40.35,14.37,44.68Z"/><path class="cls-1" d="M39.81,38.5c.12,0,.12.07.12.17v.42c0,.12,0,.17-.15.17H36.27c-3.43,0-4.22,1.19-4.22,5.84S32.84,51,36.27,51h3.51c.1,0,.15,0,.15.14v.45c0,.07,0,.12-.12.15-.94.12-2.94.12-3.54.12-4.17,0-5.16-1.41-5.16-6.72s1-6.7,5.16-6.7C36.87,38.4,38.87,38.4,39.81,38.5Z"/><path class="cls-1" d="M53,38.52c.13,0,.15.07.15.15v.42a.15.15,0,0,1-.17.17H50.76c-.57,0-2,.05-2,1.46v10.8a.18.18,0,0,1-.18.18h-.61a.18.18,0,0,1-.18-.18V40.62c0-2.22,2.38-2.22,2.95-2.22A22.91,22.91,0,0,1,53,38.52Z"/><path class="cls-1" d="M70.39,38.55a.16.16,0,0,1,.17.17V51.45c0,.07,0,.15-.2.17a43.07,43.07,0,0,1-5,.2c-3.36,0-4.92-.67-4.92-5.24V38.72a.17.17,0,0,1,.17-.17h.62a.17.17,0,0,1,.18.17v7.86c0,3.88,1.23,4.38,3.85,4.38H69.6V38.72a.16.16,0,0,1,.17-.17Z"/><path class="cls-1" d="M80.7,35.28a.73.73,0,1,1-1.46,0,.73.73,0,0,1,1.46,0Zm-.4,3.27c.1,0,.15.07.15.17v12.8c0,.1,0,.18-.15.18h-.64c-.1,0-.15-.08-.15-.18V38.72c0-.1,0-.17.15-.17Z"/><path class="cls-1" d="M90.64,34.76c.1,0,.17,0,.17.15v3.64h2.94a.16.16,0,0,1,.17.17v.49a.17.17,0,0,1-.17.18H90.81V49.5c0,1.13.35,1.46,1.58,1.46H94c.1,0,.17,0,.17.14v.45c0,.1,0,.15-.15.17a13.09,13.09,0,0,1-1.58.1c-1.8,0-2.59-.42-2.59-2.22V39.39H88.39c-.1,0-.15-.08-.15-.18v-.49c0-.1.05-.17.15-.17h1.46V35.08c0-.09,0-.14.14-.17Z"/><path class="cls-1" d="M102.75,35.28a.73.73,0,1,1-1.46,0,.73.73,0,0,1,1.46,0Zm-.4,3.27c.1,0,.15.07.15.17v12.8c0,.1,0,.18-.15.18h-.64c-.1,0-.15-.08-.15-.18V38.72c0-.1,0-.17.15-.17Z"/><path class="cls-1" d="M121.56,43.66v7.86a.17.17,0,0,1-.17.18h-.62a.17.17,0,0,1-.17-.18V43.64c0-3.86-1.24-4.38-3.86-4.38h-4.32V51.52a.18.18,0,0,1-.18.18h-.61a.16.16,0,0,1-.18-.18V38.77c0-.1,0-.15.2-.2,1.68-.17,3.46-.17,5-.17C120,38.4,121.56,39.06,121.56,43.66Z"/><path class="cls-1" d="M139.81,38.5c.22,0,.27.19.27.37V51.8c0,3.7-1,4.79-5.14,4.79-1.06,0-2.18,0-3.29-.1a.16.16,0,0,1-.17-.17v-.45c0-.09.07-.14.17-.14h3.29c3.46,0,4.18-.89,4.18-3.81V51.7c-1.39.1-2.5.12-3.59.12-4.87,0-5.51-1.21-5.51-6.55,0-5.56.62-6.87,4.92-6.87C136.27,38.4,137.53,38.4,139.81,38.5Zm-4.87.76c-3.51,0-4,1.14-4,6,0,4.65.47,5.72,4.55,5.72,1.16,0,2.4,0,3.59-.13V39.26Z"/><path class="cls-2" d="M19,4.57l6.75,24.86c.08.47,0,.62-.47.62h-4c-.35,0-.43-.15-.54-.62L18.48,21H7.36L5,29.43c-.12.47-.2.62-.51.62h-4c-.43,0-.55-.15-.47-.62L7,4.57C8.14.47,8.84,0,12.9,0,17.27,0,17.9.47,19,4.57ZM11.54,5.85l-3,11h8.82l-2.93-11C14,4.45,14,4.25,12.9,4.25,12,4.25,11.93,4.45,11.54,5.85Z"/><path class="cls-2" d="M48.61.47a.73.73,0,0,1,.7.82V3.75c0,.43-.19.62-.58.62h-8c-6.09,0-7.14,2.46-7.14,10.77s1.05,10.74,7.14,10.74h5.42V16a.55.55,0,0,1,.59-.62h3.55a.55.55,0,0,1,.59.62V27.32a1.41,1.41,0,0,1-.16.86c-.86,1.72-5.93,2.07-10,2.07-9.72,0-12.22-3.44-12.22-15.11S31,0,40.69,0A55.23,55.23,0,0,1,48.61.47Z"/><path class="cls-2" d="M113.36,9.72c0,6.09-1.64,8.31-6.2,9l6.59,10.54c.32.43.12.78-.46.78h-3.63a1.55,1.55,0,0,1-1.57-.86l-6.43-10.14-4.77,0V29.47c0,.46-.11.58-.58.58H92.44c-.46,0-.58-.12-.58-.58V.86c0-.43.12-.51.58-.55C95.57.08,99.08,0,101.77,0,110.44,0,113.36,1.8,113.36,9.72ZM96.89,4.37V15.06h4.41c5.55,0,7-.46,7-5.22s-1.44-5.47-7-5.47Z"/><path class="cls-2" d="M134.79,4.57l6.75,24.86c.08.47,0,.62-.47.62h-4c-.35,0-.43-.15-.55-.62L134.24,21H123.12l-2.34,8.39c-.12.47-.2.62-.51.62h-4c-.43,0-.55-.15-.47-.62l7-24.86C123.9.47,124.6,0,128.66,0,133,0,133.66.47,134.79,4.57ZM127.3,5.85l-3,11h8.82l-2.93-11c-.39-1.4-.43-1.6-1.52-1.6C127.76,4.25,127.69,4.45,127.3,5.85Z"/><path class="cls-2" d="M71.14,18.38c3.17,0,4.31-3.17,4.61-5.78C76.11,9.4,74.6,7,71.14,7s-5,2.42-4.6,5.62C66.84,15.21,68,18.38,71.14,18.38Z"/><path class="cls-2" d="M66.54,18.27a9.06,9.06,0,0,0-2.1.88c-1,.79-1.32,2.55-1.53,3.76a21.48,21.48,0,0,0-.33,2.89,18.2,18.2,0,0,0,2.25,1.13,16.67,16.67,0,0,0,12.62,0,15.72,15.72,0,0,0,2.25-1.12,21.62,21.62,0,0,0-.32-2.9c-.22-1.21-.49-3-1.54-3.76a9.17,9.17,0,0,0-2.09-.88,8.1,8.1,0,0,1-.93-.41,5,5,0,0,1-7.36,0A7.92,7.92,0,0,1,66.54,18.27Z"/><path class="cls-2" d="M71.14.09a15.76,15.76,0,0,1,10.47,4,14.82,14.82,0,0,1,5,10.32,14.6,14.6,0,0,1-.92,6,15.14,15.14,0,0,1-3.31,5.17A15.81,15.81,0,0,1,77.26,29c-.5.17-1,.38-1.48.53s-1,.28-1.52.38-1,.17-1.55.23l-1.57.08A16,16,0,0,1,65,29a15.44,15.44,0,0,1-5.14-3.48,15,15,0,0,1-3.31-5.17A14.72,14.72,0,0,1,60.68,4,15.8,15.8,0,0,1,71.14.09Zm0,0A14.56,14.56,0,0,0,65.61,1.2,13.82,13.82,0,0,0,61,4.36,13.59,13.59,0,0,0,58,9a13.18,13.18,0,0,0,3.75,14.53,14.23,14.23,0,0,0,18.75,0A13.19,13.19,0,0,0,84.27,9a13.49,13.49,0,0,0-3-4.66A13.92,13.92,0,0,0,76.68,1.2,14.61,14.61,0,0,0,71.14.09Z"/></g></g></svg>