<svg xmlns="http://www.w3.org/2000/svg" viewBox="0 0 101.2 101.14"><defs><style>.cls-1{fill:#fff;}</style></defs><title>Asset 8</title><g id="Layer_2" data-name="Layer 2"><g id="Layer_1-2" data-name="Layer 1"><path class="cls-1" d="M50.61,0A50.64,50.64,0,0,1,98,68.42,50.51,50.51,0,0,1,60.81,100.1a52.92,52.92,0,0,1-10.2,1,51.24,51.24,0,0,1-20-4.09,50.58,50.58,0,0,1,20-97Zm0,0A47,47,0,0,0,6.51,30.53,47.13,47.13,0,1,0,69.24,3.82,47.62,47.62,0,0,0,50.61,0Z"/><path class="cls-1" d="M70.05,33a4.66,4.66,0,0,0-1.36-3.29l-4.4-4.39A4.73,4.73,0,0,0,61,24H60.7v9.32h9.35V33Z"/><path class="cls-1" d="M58.09,56a6.1,6.1,0,0,1,1.49-2.42L70.09,43.12V36.39H59.18a1.5,1.5,0,0,1-1.5-1.55V24H34.39a4.66,4.66,0,0,0-4.66,4.66V72.31A4.66,4.66,0,0,0,34.39,77h31a4.7,4.7,0,0,0,4.7-4.66V60.72l-1.71,1.67A6.3,6.3,0,0,1,66,63.88L61,65.53l-.75,0a3.89,3.89,0,0,1-3.68-5.12Zm-20.6-4.09H53A1.56,1.56,0,0,1,53,55H37.49a1.56,1.56,0,0,1,0-3.11Zm-1.55-4.66a1.54,1.54,0,0,1,1.55-1.55H53a1.55,1.55,0,1,1,0,3.1H37.49A1.54,1.54,0,0,1,35.94,47.26Zm0,12.42a1.55,1.55,0,0,1,1.55-1.55H53a1.56,1.56,0,0,1,0,3.11H37.49A1.55,1.55,0,0,1,35.94,59.68Zm23.24,7.77a1.55,1.55,0,0,1,0,3.1H49.86a1.55,1.55,0,0,1,0-3.1ZM37.49,42.6a1.55,1.55,0,0,1,0-3.1H59.18a1.55,1.55,0,0,1,0,3.1Z"/><path class="cls-1" d="M60.9,57.39l-1.35,4a.77.77,0,0,0,1,1l4-1.35Z"/><path class="cls-1" d="M73,44.6,62.73,54.83l4.41,4.41L77.37,49Z"/><path class="cls-1" d="M81.82,40.15a3.26,3.26,0,0,0-4.41,0l-2.26,2.26,4.41,4.41,2.26-2.26A3.13,3.13,0,0,0,81.82,40.15Z"/><path class="cls-1" d="M73.82,44.56Z"/><path class="cls-1" d="M73.83,44.55h0Z"/><path class="cls-1" d="M73.84,44.54Z"/></g></g></svg>